<svg xmlns="http://www.w3.org/2000/svg" viewBox="0 0 1440 960" fill="none">
  <defs>
    <linearGradient id="bg" x1="80" y1="120" x2="1360" y2="860" gradientUnits="userSpaceOnUse">
      <stop stop-color="#0A0D14"/>
      <stop offset="1" stop-color="#101727"/>
    </linearGradient>
    <radialGradient id="glow1" cx="0" cy="0" r="1" gradientUnits="userSpaceOnUse" gradientTransform="translate(360 260) rotate(38) scale(540 420)">
      <stop stop-color="#76D7FF" stop-opacity="0.42"/>
      <stop offset="1" stop-color="#76D7FF" stop-opacity="0"/>
    </radialGradient>
    <radialGradient id="glow2" cx="0" cy="0" r="1" gradientUnits="userSpaceOnUse" gradientTransform="translate(1080 300) rotate(12) scale(480 320)">
      <stop stop-color="#AB92FF" stop-opacity="0.36"/>
      <stop offset="1" stop-color="#AB92FF" stop-opacity="0"/>
    </radialGradient>
    <radialGradient id="glow3" cx="0" cy="0" r="1" gradientUnits="userSpaceOnUse" gradientTransform="translate(760 760) rotate(-15) scale(540 300)">
      <stop stop-color="#FFBB63" stop-opacity="0.25"/>
      <stop offset="1" stop-color="#FFBB63" stop-opacity="0"/>
    </radialGradient>
    <filter id="blur" x="-100" y="-100" width="1640" height="1160" filterUnits="userSpaceOnUse" color-interpolation-filters="sRGB">
      <feGaussianBlur stdDeviation="40"/>
    </filter>
  </defs>
  <rect width="1440" height="960" rx="48" fill="url(#bg)"/>
  <ellipse cx="360" cy="260" rx="480" ry="340" fill="url(#glow1)" filter="url(#blur)"/>
  <ellipse cx="1080" cy="300" rx="420" ry="280" fill="url(#glow2)" filter="url(#blur)"/>
  <ellipse cx="760" cy="760" rx="520" ry="260" fill="url(#glow3)" filter="url(#blur)"/>
  <g opacity="0.16" stroke="white">
    <path d="M120 820C280 600 420 540 650 520C915 497 1050 580 1320 300" stroke-width="2"/>
    <path d="M200 220C380 310 560 340 775 290C975 242 1150 180 1270 140" stroke-width="2"/>
    <path d="M170 660C410 650 560 710 770 800C960 880 1160 860 1290 700" stroke-width="2"/>
  </g>
  <g>
    <rect x="150" y="150" width="420" height="250" rx="28" fill="rgba(255,255,255,0.05)" stroke="rgba(255,255,255,0.18)"/>
    <rect x="505" y="305" width="420" height="250" rx="28" fill="rgba(255,255,255,0.04)" stroke="rgba(255,255,255,0.16)" transform="rotate(-4 505 305)"/>
    <rect x="865" y="160" width="380" height="230" rx="28" fill="rgba(255,255,255,0.05)" stroke="rgba(255,255,255,0.16)" transform="rotate(4 865 160)"/>
  </g>
  <g opacity="0.8">
    <rect x="218" y="220" width="198" height="10" rx="5" fill="white"/>
    <rect x="218" y="252" width="130" height="8" rx="4" fill="rgba(255,255,255,0.56)"/>
    <rect x="218" y="278" width="220" height="8" rx="4" fill="rgba(255,255,255,0.28)"/>
    <rect x="562" y="380" width="240" height="10" rx="5" fill="white"/>
    <rect x="562" y="412" width="168" height="8" rx="4" fill="rgba(255,255,255,0.56)"/>
    <rect x="562" y="438" width="260" height="8" rx="4" fill="rgba(255,255,255,0.28)"/>
    <rect x="932" y="230" width="190" height="10" rx="5" fill="white"/>
    <rect x="932" y="262" width="148" height="8" rx="4" fill="rgba(255,255,255,0.56)"/>
    <rect x="932" y="288" width="206" height="8" rx="4" fill="rgba(255,255,255,0.28)"/>
  </g>
  <g>
    <circle cx="472" cy="655" r="8" fill="#76D7FF"/>
    <circle cx="663" cy="595" r="8" fill="#AB92FF"/>
    <circle cx="864" cy="640" r="8" fill="#FFBB63"/>
    <circle cx="1090" cy="575" r="8" fill="white"/>
  </g>
  <text x="120" y="890" font-family="Inter, Arial, sans-serif" font-size="34" fill="white" opacity="0.88">Networked premium film distribution</text>
</svg>